# Blender v2.92.0 OBJ File: ''
# www.blender.org
mtllib desk.mtl
o Cube_Cube.001
v -1.784902 1.327471 0.937700
v -1.784902 1.209009 0.937700
v -1.784902 1.327471 -1.062300
v -1.784902 1.209009 -1.062300
v 1.865003 1.327471 0.937700
v 1.865003 1.209009 0.937700
v 1.865003 1.327471 -1.062300
v 1.865003 1.209009 -1.062300
v -1.651369 1.327471 -1.062300
v -1.651369 1.209009 -1.062300
v -1.651369 1.327471 0.937700
v -1.651369 1.209009 0.937700
v 1.735179 1.209009 -1.062300
v 1.735179 1.327471 0.937700
v 1.735179 1.327471 -1.062300
v 1.735179 1.209009 0.937700
v -1.784902 1.327471 -0.921036
v -1.784902 1.209009 -0.921036
v 1.865003 1.327471 -0.921036
v 1.865003 1.209009 -0.921036
v -1.651369 1.209009 -0.921036
v -1.651369 1.327471 -0.921036
v 1.735179 1.209009 -0.921036
v 1.735179 1.327471 -0.921036
v -1.784902 1.327471 0.808106
v 1.865003 1.209009 0.808106
v -1.651369 1.209009 0.808106
v -1.651369 1.327471 0.808106
v 1.735179 1.209009 0.808106
v 1.735179 1.327471 0.808106
v -1.784902 1.209009 0.808106
v 1.865003 1.327471 0.808106
v -1.784902 0.002161 -0.921036
v -1.784902 0.002161 -1.062300
v 1.735179 0.002161 -1.062300
v 1.865003 0.002161 -1.062300
v 1.865003 0.002161 0.808106
v 1.865003 0.002161 0.937700
v -1.651369 0.002161 0.937700
v -1.784902 0.002161 0.937700
v -1.651369 0.002161 -1.062300
v -1.651369 0.002161 0.808106
v 1.735179 0.002161 0.937700
v 1.735179 0.002161 0.808106
v 1.865003 0.002161 -0.921036
v -1.651369 0.002161 -0.921036
v 1.735179 0.002161 -0.921036
v -1.784902 0.002161 0.808106
vt 0.375000 0.232342
vt 0.375000 0.250000
vt 0.625000 0.250000
vt 0.625000 0.232342
vt 0.375000 0.491108
vt 0.375000 0.500000
vt 0.625000 0.500000
vt 0.625000 0.491108
vt 0.375000 0.733801
vt 0.375000 0.750000
vt 0.625000 0.750000
vt 0.625000 0.733801
vt 0.375000 0.990854
vt 0.375000 1.000000
vt 0.625000 1.000000
vt 0.625000 0.990854
vt 0.366108 0.733801
vt 0.366108 0.750000
vt 0.625000 0.016199
vt 0.625000 0.016199
vt 0.625000 0.000000
vt 0.625000 0.000000
vt 0.633892 0.733801
vt 0.633892 0.750000
vt 0.865854 0.750000
vt 0.865854 0.733801
vt 0.125000 0.733801
vt 0.125000 0.750000
vt 0.134146 0.750000
vt 0.134146 0.733801
vt 0.375000 0.758892
vt 0.625000 0.758892
vt 0.375000 0.259146
vt 0.625000 0.259146
vt 0.865854 0.733801
vt 0.875000 0.733801
vt 0.875000 0.733801
vt 0.134146 0.500000
vt 0.134146 0.517658
vt 0.366108 0.517658
vt 0.366108 0.500000
vt 0.625000 0.500000
vt 0.625000 0.491108
vt 0.125000 0.500000
vt 0.125000 0.517658
vt 0.633892 0.500000
vt 0.633892 0.517658
vt 0.865854 0.517658
vt 0.865854 0.500000
vt 0.633892 0.500000
vt 0.633892 0.517658
vt 0.375000 0.517658
vt 0.625000 0.517658
vt 0.375000 0.016199
vt 0.375000 0.000000
vt 0.875000 0.517658
vt 0.865854 0.750000
vt 0.875000 0.750000
vt 0.625000 0.733801
vt 0.625000 0.750000
vt 0.633892 0.750000
vt 0.633892 0.733801
vt 0.625000 0.517658
vt 0.865854 0.500000
vt 0.865854 0.517658
vt 0.875000 0.517658
vt 0.875000 0.500000
vt 0.625000 0.259146
vt 0.625000 0.250000
vt 0.625000 0.758892
vt 0.625000 0.232342
vt 0.625000 1.000000
vt 0.625000 0.990854
vn -1.0000 0.0000 0.0000
vn 0.0000 0.0000 -1.0000
vn 1.0000 0.0000 0.0000
vn 0.0000 0.0000 1.0000
vn 0.0000 1.0000 0.0000
vn 0.0000 -1.0000 0.0000
usemtl None
s off
f 17/1/1 3/2/1 4/3/1 18/4/1
f 15/5/2 7/6/2 8/7/2 13/8/2
f 32/9/3 5/10/3 6/11/3 26/12/3
f 11/13/4 1/14/4 2/15/4 12/16/4
f 30/17/5 14/18/5 5/10/5 32/9/5
f 31/19/1 48/20/1 40/21/1 2/22/1
f 29/23/6 16/24/6 12/25/6 27/26/6
f 25/27/5 1/28/5 11/29/5 28/30/5
f 14/31/4 11/13/4 12/16/4 16/32/4
f 3/2/2 9/33/2 10/34/2 4/3/2
f 5/10/4 14/31/4 16/32/4 6/11/4
f 27/26/2 42/35/2 48/36/2 31/37/2
f 28/30/5 11/29/5 14/18/5 30/17/5
f 9/33/2 15/5/2 13/8/2 10/34/2
f 9/38/5 22/39/5 24/40/5 15/41/5
f 8/7/2 36/42/2 35/43/2 13/8/2
f 3/44/5 17/45/5 22/39/5 9/38/5
f 13/46/6 23/47/6 21/48/6 10/49/6
f 13/46/1 35/50/1 47/51/1 23/47/1
f 15/41/5 24/40/5 19/52/5 7/6/5
f 7/6/3 19/52/3 20/53/3 8/7/3
f 25/54/1 17/1/1 18/4/1 31/19/1
f 1/55/1 25/54/1 31/19/1 2/22/1
f 22/39/5 28/30/5 30/17/5 24/40/5
f 20/53/6 26/12/6 29/23/6 23/47/6
f 17/45/5 25/27/5 28/30/5 22/39/5
f 23/47/6 29/23/6 27/26/6 21/48/6
f 21/48/6 27/26/6 31/37/6 18/56/6
f 24/40/5 30/17/5 32/9/5 19/52/5
f 19/52/3 32/9/3 26/12/3 20/53/3
f 42/35/6 39/57/6 40/58/6 48/36/6
f 37/59/6 38/60/6 43/61/6 44/62/6
f 36/42/6 45/63/6 47/51/6 35/50/6
f 41/64/6 46/65/6 33/66/6 34/67/6
f 10/34/2 41/68/2 34/69/2 4/3/2
f 23/47/4 47/51/4 45/63/4 20/53/4
f 6/11/3 38/60/3 37/59/3 26/12/3
f 16/32/4 43/70/4 38/60/4 6/11/4
f 12/25/3 39/57/3 42/35/3 27/26/3
f 20/53/3 45/63/3 36/42/3 8/7/3
f 4/3/1 34/69/1 33/71/1 18/4/1
f 26/12/2 37/59/2 44/62/2 29/23/2
f 21/48/3 46/65/3 41/64/3 10/49/3
f 29/23/1 44/62/1 43/61/1 16/24/1
f 18/56/4 33/66/4 46/65/4 21/48/4
f 2/15/4 40/72/4 39/73/4 12/16/4
